<?xml version="1.0" encoding="utf-8"?>
<!-- Generator: Adobe Illustrator 19.2.1, SVG Export Plug-In . SVG Version: 6.00 Build 0)  -->
<svg version="1.1" id="layer" xmlns="http://www.w3.org/2000/svg" xmlns:xlink="http://www.w3.org/1999/xlink" x="0px" y="0px"
	 viewBox="0 0 652 652" style="enable-background:new 0 0 652 652;" xml:space="preserve">
<style type="text/css">
	.st0{filter:url(#Adobe_OpacityMaskFilter);}
	.st1{fill:#FFFFFF;}
	.st2{mask:url(#mask-2_1_);}
	.st3{fill:#1C1C1C;}
</style>
<g id="Symbols">
	<g id="header" transform="translate(-60.000000, -60.000000)">
		<g id="logo" transform="translate(60.000000, 60.000000)">
			<g>
				<g id="Rectangle-path">
				</g>
				<defs>
					<filter id="Adobe_OpacityMaskFilter" filterUnits="userSpaceOnUse" x="25.4" y="275.7" width="600" height="100">
						<feColorMatrix  type="matrix" values="1 0 0 0 0  0 1 0 0 0  0 0 1 0 0  0 0 0 1 0"/>
					</filter>
				</defs>
				<mask maskUnits="userSpaceOnUse" x="25.4" y="275.7" width="600" height="100" id="mask-2_1_">
					<g class="st0">
						<rect id="path-1_1_" x="25.4" y="275.7" class="st1" width="600" height="100"/>
					</g>
				</mask>
				<g id="Ebene-1" class="st2">
					<g id="Group" transform="translate(0.000000, -0.138241)">
						<g>
							<g id="Group-2">
								<path id="Shape" class="st3" d="M57.8,316.8c0,4.2-3.4,7.7-7.8,7.7c-4.3,0-7.8-3.5-7.8-7.7c0-4.3,3.5-7.7,7.8-7.7
									C54.4,309,57.8,312.4,57.8,316.8"/>
								<path id="Shape_1_" class="st3" d="M76.4,283.6c0,8.5-0.9,9.2-9.2,9.2c-4.3,0-7.8,3.4-7.8,7.7c0,4.3,3.5,7.7,7.8,7.7
									c4.2,0,7.6-3.3,7.6-7.7c0-8.4,0.7-9.1,9.2-9.1c4.3,0,7.8-3.5,7.8-7.8c0-4.3-3.4-7.7-7.8-7.7
									C79.8,275.9,76.4,279.3,76.4,283.6"/>
								<path id="Shape_2_" class="st3" d="M92.8,351.3c0,8.5-0.6,9.2-9.2,9.2c-4.3,0-7.7,3.5-7.7,7.7c0,4.3,3.3,7.7,7.7,7.7
									c4.3,0,7.8-3.5,7.8-7.7c0-8.3,0.7-9.2,9.2-9.2c4.3,0,7.8-3.5,7.8-7.7c0-4.3-3.4-7.7-7.8-7.7C96.2,343.5,92.8,347,92.8,351.3
									"/>
								<path id="Shape_3_" class="st3" d="M92.8,317.4c0,8.5-0.8,9.2-9.2,9.2c-4.3,0-7.7,3.5-7.7,7.7c0,4.3,3.3,7.8,7.7,7.8
									c4.3,0,7.8-3.5,7.8-7.8c0-8.4,0.7-9.1,9.2-9.1c4.3,0,7.8-3.5,7.8-7.8c0-4.1-3.4-7.6-7.8-7.6
									C96.2,309.9,92.8,313.4,92.8,317.4"/>
								<path id="Shape_4_" class="st3" d="M59,368.1c0,4.3,3.5,7.7,7.8,7.7c4.2,0,7.6-3.5,7.6-7.7c0-4.2-3.4-7.7-7.6-7.7
									C62.5,360.5,59,364,59,368.1"/>
								<path id="Shape_5_" class="st3" d="M40.8,317.3c0,8.5,0.7,9.2,9.2,9.2c4.3,0,7.8,3.5,7.8,7.7c0,4.3-3.4,7.8-7.8,7.8
									s-7.8-3.5-7.8-7.8c0-8.4-0.7-9.1-9-9.1c-4.3,0-7.8-3.5-7.8-7.8c0-4.3,3.5-7.7,7.8-7.7C37.3,309.5,40.8,312.9,40.8,317.3"/>
								<path id="Shape_6_" class="st3" d="M40.8,334.2c0,8.5,0.7,9.2,9.2,9.2c4.3,0,7.8,3.5,7.8,7.6c0,4.3-3.4,7.8-7.8,7.8
									s-7.8-3.5-7.8-7.8c0-8.2-0.7-8.9-9-8.9c-4.3,0-7.8-3.5-7.8-7.8c0-4.2,3.5-7.7,7.8-7.7C37.3,326.5,40.8,329.9,40.8,334.2"/>
								<path id="Shape_7_" class="st3" d="M74.7,334.2c0,8.5,0.7,9.2,9.2,9.2c4.2,0,7.6,3.5,7.6,7.6c0,4.3-3.4,7.8-7.6,7.8
									c-4.3,0-7.8-3.5-7.8-7.8c0-8.2-0.7-8.9-9.1-8.9c-4.3,0-7.8-3.5-7.8-7.8c0-4.2,3.5-7.7,7.8-7.7
									C71.3,326.5,74.7,329.9,74.7,334.2"/>
								<path id="Shape_8_" class="st3" d="M40.8,350.9c0,8.5,0.7,9.2,9.2,9.2c4.3,0,7.8,3.5,7.8,7.8c0,4.3-3.4,7.7-7.8,7.7
									s-7.8-3.5-7.8-7.7c0-8.5-0.7-9.2-9-9.2c-4.3,0-7.8-3.5-7.8-7.8c0-4.1,3.5-7.6,7.8-7.6C37.3,343.4,40.8,346.9,40.8,350.9"/>
								<path id="Shape_9_" class="st3" d="M101.1,341.8c-4.3,0-7.8-3.5-7.8-7.8c0-4.3,3.4-7.7,7.8-7.7c4.3,0,7.8,3.5,7.8,7.7
									C108.8,338.4,105.4,341.8,101.1,341.8"/>
								<path id="Shape_10_" class="st3" d="M83.6,324.8c-4.3,0-7.7-3.5-7.7-7.8c0-4.3,3.3-7.7,7.7-7.7c4.3,0,7.8,3.4,7.8,7.7
									C91.4,321.3,87.9,324.8,83.6,324.8"/>
								<path id="Shape_11_" class="st3" d="M57.8,300.2c0,4.3-3.4,7.8-7.8,7.8c-4.3,0-7.8-3.5-7.8-7.8c0-4.3,3.5-7.7,7.8-7.7
									C54.4,292.4,57.8,295.8,57.8,300.2"/>
							</g>
							<path id="Shape_12_" class="st3" d="M174.5,317.6h-0.2l-5.6,29h11.5L174.5,317.6L174.5,317.6z M169.6,294.5h9.6l17.9,80.1
								h-11.5l-3.4-17.2h-15.7l-3.4,17.2h-11.5L169.6,294.5L169.6,294.5z"/>
							<path id="Shape_13_" class="st3" d="M219.9,363.8h5.3c6.4,0,8.9-3.1,8.9-10v-38.6c0-6.3-2.1-9.9-8.9-9.9h-5.3V363.8
								L219.9,363.8z M208.4,294.5h17c13,0,20.2,7.8,20.2,20.7v37.4c0,14.8-7.7,21.9-21.2,21.9h-16V294.5L208.4,294.5z"/>
							<path id="Shape_14_" class="st3" d="M279.7,317.6h-0.2l-5.6,29h11.5L279.7,317.6L279.7,317.6z M274.8,294.5h9.6l17.9,80.1
								h-11.5l-3.4-17.2h-15.7l-3.4,17.2h-11.5L274.8,294.5L274.8,294.5z"/>
							<polygon id="Shape_15_" class="st3" points="313.6,294.5 324.7,294.5 339.4,336.9 339.7,336.9 354.3,294.5 365.5,294.5 
								365.5,374.6 354,374.6 354,325.9 353.8,325.9 342.4,360.3 336.6,360.3 325.3,325.9 325.1,325.9 325.1,374.6 313.6,374.6 
															"/>
							<path id="Shape_16_" class="st3" d="M417.6,317.6h-0.2l-5.6,29h11.5L417.6,317.6L417.6,317.6z M412.7,294.5h9.6l17.9,80.1
								h-11.5l-3.4-17.2h-15.7l-3.4,17.2h-11.5L412.7,294.5L412.7,294.5z"/>
							<path id="Shape_17_" class="st3" d="M488.7,356.6c0,10.5-8.3,18.7-18.6,18.7c-10.3,0-18.6-8.2-18.6-18.7v-62.1H463v61
								c0,5.6,3,8.3,7.1,8.3c4.1,0,7.1-2.7,7.1-8.3v-61h11.5V356.6L488.7,356.6z"/>
							<path id="Shape_18_" class="st3" d="M516.7,363.8h5.3c6.4,0,8.9-3.1,8.9-10v-38.6c0-6.3-2.1-9.9-8.9-9.9h-5.3V363.8
								L516.7,363.8z M505.2,294.5h17c13,0,20.2,7.8,20.2,20.7v37.4c0,14.8-7.7,21.9-21.2,21.9h-16V294.5L505.2,294.5z"/>
							<rect id="Rectangle-path_1_" x="559.2" y="294.5" class="st3" width="11.5" height="80.1"/>
							<path id="Shape_19_" class="st3" d="M598.3,355.7c0,5.5,3.6,8.1,7.8,8.1c4.2,0,7.8-2.6,7.8-8.1v-42.3c0-5.5-3.6-8.1-7.8-8.1
								c-4.2,0-7.8,2.6-7.8,8.1V355.7L598.3,355.7z M586.8,313.4c0-13,9.9-19.6,19.3-19.6c9.4,0,19.3,6.5,19.3,19.6v42.3
								c0,13-9.9,19.6-19.3,19.6c-9.4,0-19.3-6.5-19.3-19.6V313.4L586.8,313.4z"/>
						</g>
					</g>
				</g>
			</g>
		</g>
	</g>
</g>
</svg>
